<svg id="katman_1" data-name="katman 1" xmlns="http://www.w3.org/2000/svg" viewBox="0 0 794 527.97"><defs><style>.cls-1{fill:none;stroke:#ceff00;stroke-miterlimit:10;stroke-width:2px;}</style></defs><path class="cls-1" d="M156.26,333.52a263,263,0,0,1,35.11,3.66c1.81.3,2.77.89,2.11-2-1-4-1.56-8.31.18-12.34.59-1.37.11-2.26-1.14-2.92s-2.59-1.67-4-2.26c-1.18-.44-1-1.18-.66-2s.88-.85,1.92-.33c6.8,3.62,7.43,4.25,6.47,11.75-.41,3.15.11,5,3,6.21.74.3,1.25,1.15,2,1.52,1,.52,1.66,2.92,2.8,1.37s3.55-2.63,2.19-5.4c-3.26-6.84-2-11.05,4.65-14.53,3.59-1.92,3-3.47,1-5.84a20.09,20.09,0,0,0-6.21-4.8c-1-.52-2.18-1.11-1.44-2.37s1.89-.62,2.85-.18a20.26,20.26,0,0,1,8.83,8.17c1.78,3.14,8.39,3,10.2-.19a23.84,23.84,0,0,1,8.36-8.68c1-.59,2.1-1.63,3.06-.11.78,1.29-.44,1.88-1.36,2.44a22.81,22.81,0,0,0-6.91,6.72c-1,1.59-1.22,2.4,1,3.37,7.95,3.47,9.35,7.24,6.32,15.56-.85,2.36,1.33,3.4,2.33,4.76s1.55-.66,2.37-1.07c4.43-2.07,5-5.54,4.32-10.12-.81-5.4,1.44-8.21,6.47-10.06a1,1,0,0,1,1.44.56,2.19,2.19,0,0,1,.15,1.66c-.11.33-.78.48-1.18.66-3.81,1.67-5.1,4-3.55,8.39a13.14,13.14,0,0,1-1,11,1.69,1.69,0,0,0-.18.78,6,6,0,0,0,1.37-.15,243.17,243.17,0,0,1,34.26-5.8,54.34,54.34,0,0,1,22.36,2c10.57,3.32,12.83,10,6.4,19.11-4.62,6.5-10.65,11.31-18.37,13.56-1.48.41-2.48.67-2.22,2.81.55,5.32-1.66,8.5-6.73,10.46-6,2.29-12,1.7-17.78-.89-.74-.29-1.77-1-2.21-.74-1,.6-.23,1.67-.15,2.59.18,5.18,4.14,8.1,6.95,11.75.29.41,1.29.45.85,1.26a4.53,4.53,0,0,1-2.78,2.15,1.07,1.07,0,0,1-1.4-.71c-2.25-4.43-5.29-8.24-8.17-12.23a64.59,64.59,0,0,1-3.36-5.92c-.33-.59-.85-1.44-1.59-1s.22,1,.41,1.52c3.14,8.72,4.87,17.52,3,26.94-.6,3,1.22,6.62,2.51,9.72,1,2.44,1.26,5.18,3,7.43.89,1.07-.67,1.41-1.4,1.7-1,.41-1.63.67-2.26-1-4.66-11-5.65-22.88-8.43-34.34a.81.81,0,0,0-.07-.33c-.7-2-1-5-3.47-4.73-1.7.22-.63,3.1-.78,4.8-.44,7.21-1.63,14.27-5,20.74-8.87,17-27.72,17.85-38,1.55-4.36-6.95-6.06-14.71-6.65-22.88-.07-.85.48-2.33-.67-2.51-1.36-.26-1.51,1.29-1.77,2.22-2.07,7.87-2.81,16-3.92,24.06-.63,4.73-3.43,8.72-3.77,13.49-.15,1.63-1.73.52-2.55.3-.66-.15-1.7-.34-1-1.67,2.59-4.8,3.07-10.31,4.92-15.41a3,3,0,0,0,.11-1.7c-3-9.24-1-18.11,1.52-27.06.14-.48.88-1.14.14-1.51s-1,.37-1.25.88c-2.7,6.77-7.88,12.13-10.83,18.71-.3.7-.56.88-1.3.77a4.84,4.84,0,0,1-2.69-1.62c-.74-.85.14-1.15.55-1.67,2.92-3.84,6.51-7.28,6.62-12.6.07-2.14-.3-2.55-2.22-1.4a22.72,22.72,0,0,1-16.26,2.47c-6.32-1.4-9-4.47-9-10.94,0-2.22-1.36-2.14-2.66-2.48a34.61,34.61,0,0,1-19.51-13.82c-5.73-8-3.7-14.45,5.47-18A55.86,55.86,0,0,1,156.26,333.52Zm65.86,50.08a82,82,0,0,0,12.94-1.55c6.76-1.33,7.24-2.18,4.91-8.65-.55-1.44-1.14-1.77-2.62-1.29-9.13,2.88-18.37,2.85-27.65,1-3.4-.67-4.84.11-5,3.51a17.68,17.68,0,0,1-.44,2.07c-.7,2.4.3,3.4,2.7,3.73A106.85,106.85,0,0,0,222.12,383.6Zm3,16.93c2.95-.22,5.95-.33,8.9-.66,6-.67,7.06-2,7.06-8.1,0-1.59-.26-2.14-2-1.59a46.09,46.09,0,0,1-9.8,2,85.41,85.41,0,0,1-21.73-.78c-1-.14-2.44-1.14-3,.59-.85,2.48,1.59,6.51,4.21,7A69.72,69.72,0,0,0,225.12,400.53Zm57-57.77c-.89.11-3-.18-3.29.45-.67,1.4,1.07,2.36,1.92,3.43a47.28,47.28,0,0,0,9.61,9c7.87,5.66,10,5.32,16.6-1.81,1.62-1.81,1.25-2.51-.48-3.73A46.88,46.88,0,0,0,282.15,342.76Zm-120.31,2.66a44.1,44.1,0,0,0-17.15,4.7c-2.85,1.44-7.32,2.77-7.4,5.5-.07,2.92,4.22,4.7,7,6.62,1.26.92,2.52,1.63,4.25.67a52.29,52.29,0,0,0,17.08-15.6c1.22-1.7.48-2-1.18-1.89Zm116.39,32c3.73-.48,7.43-1,9.65-4.5,2-3.18.62-6-3-6.44a30.8,30.8,0,0,1-10.75-3.69c-5.95-3.22-11.9-6.51-17.93-9.72-.55-.3-1.11-1-1.92-.41a16.68,16.68,0,0,0,1.37,1.11c7.35,5.51,13.78,11.83,17.37,20.51C274.13,376.91,275.75,377.58,278.23,377.39ZM167.79,379.8c3.44,0,4-.11,4.58-2,3.11-9,9.06-15.9,16.15-21.92.45-.41,1.59-.74,1-1.4s-1.3.29-1.85.62c-5.43,3.22-10.87,6.51-16.26,9.76A34.09,34.09,0,0,1,161.17,369c-1.37.33-3.32-.48-3.8,1.81s-.15,4.55,1.84,6.18C161.91,379.21,165.09,379.61,167.79,379.8Zm-10.46-13.35a7.93,7.93,0,0,0,7.61-3.62,60.46,60.46,0,0,1,10.87-11.27c1.85-1.48,3.62-3,5.36-4.47-2.44-1-5.07-.71-7.58-1.19s-4.06.45-5.47,2.63a54,54,0,0,1-12.71,13.41c-1.37,1-4.4,2.26-3.88,3.11C152.56,366.82,155.26,366.42,157.33,366.45Zm115.06-22.91c-2.48.4-4.36.63-6.25,1-.85.19-2.21-.44-2.44.74-.14.85,1.08,1.07,1.78,1.55a57.35,57.35,0,0,1,14.45,12.79c3.36,4.48,7.47,4.48,12.12,3.44.74-.18,1.93,0,2.15-1s-1-1.18-1.63-1.59a54.49,54.49,0,0,1-16.23-14.93C275.05,343.94,273.87,343,272.39,343.54Zm23.25-9.72c-2.66.07-3.92,3.43-6.58,4.65-.56.23-1.59.56-1.29,1.37s1.18.59,1.88.7a50.26,50.26,0,0,1,17.08,6.25c1.25.74,2.4,2.74,3.84,1.77s1.92-3.21,2-5.17c.11-2.85-1.51-4.66-3.84-6C305,335.3,300.67,334.63,295.64,333.82ZM191.78,344.13c2.4-.15,4.8-.26,7.17-.48.55,0,1.59-.37,1.59-.56,0-.88-1-.92-1.56-1.1a88,88,0,0,0-15.45-3,243.13,243.13,0,0,0-26.42-2.47c-.74,0-1.85-.45-2.15.59-.07.33.85,1,1.41,1.37a21.78,21.78,0,0,0,10,3.84C174.85,343,183.28,344.46,191.78,344.13ZM253,342.72c7.5-.11,14.93-1.7,22.4-2.4a28,28,0,0,0,12.27-4.43c.7-.45,1.81-1.26,1.7-1.59-.37-1.26-1.59-.59-2.4-.56a240.66,240.66,0,0,0-36.63,5.84c-2.14.48-4.43.85-6.25,2.41,2.15,1.36,4.51.55,6.8.77A12.59,12.59,0,0,0,253,342.72Zm-120.79,4.66a8.44,8.44,0,0,0,1.29,4.07c.6,1.14,1.26,1.62,2.48.7a45.46,45.46,0,0,1,19.74-8.8c.52-.07,1.26-.11,1.07-1-.07-.45-8.06-5.25-8.65-5.14-4.36.78-8.68,1.66-12.53,4C133.6,342.5,132,344.28,132.23,347.38Zm71.93,4.88c0-1.59-1.33-2.25-3-1.29-9.46,5.36-17.81,12-23.24,21.69-.93,1.67-3.07,4.11-1.74,5.22,1.07.92,3.36-1.52,4.84-2.89,7.39-7.09,14.3-14.71,22.29-21.25C203.68,353.33,204.31,353,204.16,352.26Zm18.59,14.19a47.25,47.25,0,0,0,11.64-1.33c.85-.18,3,.15,2-1.92-.7-1.51-.11-4.43-2.88-4.1a104.54,104.54,0,0,1-21.73.41c-3.07-.26-2.63,2.95-3.18,4.73s1.59,1.36,2.44,1.47A46.45,46.45,0,0,0,222.75,366.45ZM241.56,349c-.77-.15-1.11.11-1.29.59a1.77,1.77,0,0,0,.63,2.22c2.29,1.92,4.62,3.81,6.87,5.77,6.36,5.58,12.27,11.68,19.33,16.48.82.59,2,1.81,2.74,1.18.89-.77-.33-1.92-.81-2.73-6.14-10.79-15.71-17.74-26.58-23.07A8.37,8.37,0,0,0,241.56,349Zm-20.4-19.22c-4.14.3-8.28,1.37-10.87,5.62-.25.44-.77,1.07-.14,1.51.22.19.85,0,1.25-.18a32,32,0,0,1,20.7-.37,5.09,5.09,0,0,0,1.7.15,6.86,6.86,0,0,0-.59-1.59C230.22,331,226.19,329.68,221.16,329.75Zm2,85.09a15.56,15.56,0,0,0,11.06-5.07c.48-.51,1.18-1.4,1-1.62-.55-.89-1.48-.26-2.18-.15a48.81,48.81,0,0,1-19.89.48,5.26,5.26,0,0,0-1.66.11,4.9,4.9,0,0,0,.81,1.48C215.39,412.91,218.91,414.84,223.19,414.84Zm30.31-69.23c-.74,0-1.44,0-2.14.07a3.18,3.18,0,0,0-1.18.45c.33.29.55.73,1,.92,7.8,4.21,15.56,8.39,23.39,12.53.41.18,1.19.44,1.3.29.48-.7-.3-.92-.63-1.29a54.9,54.9,0,0,0-11.94-9.68C260.16,347.16,257.2,345.2,253.5,345.61Zm-58.73,1.92c0-.81-.63-.63-1-.67-2.59,0-5.18,0-7.66,1.22A55,55,0,0,0,171,360c-.41.48-1.4,1-.74,1.63s1.3-.22,1.81-.59c7.14-4.22,14.31-8.5,21.48-12.75A6.19,6.19,0,0,0,194.77,347.53Z"/></svg>