<svg id="katman_1" data-name="katman 1" xmlns="http://www.w3.org/2000/svg" viewBox="0 0 194 129"><defs><style>.cls-1{fill:none;stroke:blue;stroke-miterlimit:10;}</style></defs><path class="cls-1" d="M30.58,35.15a263,263,0,0,1,35.11,3.66c1.81.29,2.77.89,2.11-2-1-4-1.55-8.32.18-12.35.6-1.36.12-2.25-1.14-2.92s-2.59-1.66-4-2.25c-1.18-.44-1-1.18-.66-2s.89-.85,1.92-.33c6.8,3.62,7.43,4.25,6.47,11.75-.41,3.14.11,5,3,6.21.74.3,1.26,1.15,2,1.52,1,.51,1.66,2.92,2.81,1.37s3.55-2.63,2.18-5.4c-3.25-6.84-2-11,4.66-14.53,3.58-1.92,3-3.47,1-5.84A20.32,20.32,0,0,0,80,7.32C79,6.8,77.82,6.21,78.56,5s1.88-.63,2.84-.18a20.23,20.23,0,0,1,8.84,8.17c1.77,3.14,8.39,3,10.2-.19a23.82,23.82,0,0,1,8.35-8.68c1-.6,2.11-1.63,3.07-.12.77,1.3-.45,1.89-1.37,2.44a23.19,23.19,0,0,0-6.91,6.73c-1,1.59-1.22,2.4,1,3.36,7.94,3.48,9.35,7.25,6.32,15.57-.85,2.36,1.33,3.4,2.33,4.76s1.55-.66,2.36-1.07c4.44-2.07,5-5.54,4.33-10.13-.82-5.39,1.44-8.2,6.46-10a1,1,0,0,1,1.45.55,2.22,2.22,0,0,1,.14,1.67c-.11.33-.77.48-1.18.66-3.81,1.67-5.1,4-3.55,8.39a13.14,13.14,0,0,1-1,11,1.59,1.59,0,0,0-.19.78,6,6,0,0,0,1.37-.15,243.17,243.17,0,0,1,34.26-5.8,54.23,54.23,0,0,1,22.37,2c10.57,3.32,12.82,10,6.39,19.1C181.79,60.21,175.76,65,168,67.27c-1.48.41-2.48.66-2.22,2.81.56,5.32-1.66,8.5-6.73,10.46-6,2.29-12,1.7-17.77-.89-.74-.29-1.78-1-2.22-.74-1,.59-.22,1.67-.15,2.59.19,5.17,4.14,8.09,7,11.75.3.41,1.29.45.85,1.26A4.49,4.49,0,0,1,144,96.65a1.06,1.06,0,0,1-1.41-.7c-2.25-4.43-5.28-8.24-8.17-12.23A67,67,0,0,1,131,77.8c-.33-.59-.85-1.44-1.59-1s.22,1,.41,1.51c3.14,8.73,4.88,17.52,3,27-.59,3,1.22,6.62,2.51,9.72,1,2.44,1.26,5.17,3,7.43.89,1.07-.66,1.4-1.4,1.7-1,.41-1.63.66-2.26-1-4.65-11-5.65-22.88-8.42-34.34a.8.8,0,0,0-.08-.33c-.7-2-1-5-3.47-4.73-1.7.22-.63,3.1-.78,4.8-.44,7.21-1.62,14.27-5,20.74-8.88,17-27.73,17.85-38,1.55-4.37-7-6.07-14.71-6.66-22.88-.07-.85.48-2.33-.66-2.51-1.37-.26-1.52,1.29-1.78,2.22-2.07,7.87-2.81,16-3.91,24.06-.63,4.73-3.44,8.72-3.77,13.49-.15,1.62-1.74.52-2.55.29s-1.71-.33-1-1.66c2.58-4.8,3.06-10.31,4.91-15.41a2.93,2.93,0,0,0,.11-1.7c-3-9.24-1-18.11,1.52-27.06.15-.48.89-1.14.15-1.51s-1,.37-1.26.88c-2.7,6.77-7.87,12.13-10.83,18.71-.29.7-.55.88-1.29.77a4.83,4.83,0,0,1-2.7-1.62c-.74-.85.15-1.15.55-1.67,2.92-3.84,6.51-7.28,6.62-12.6.07-2.15-.3-2.55-2.22-1.41A22.67,22.67,0,0,1,38,83.68c-6.32-1.4-9-4.47-9-10.94,0-2.22-1.37-2.14-2.66-2.48A34.64,34.64,0,0,1,6.85,56.44c-5.73-8-3.7-14.45,5.47-18A55.86,55.86,0,0,1,30.58,35.15ZM96.44,85.23a81.81,81.81,0,0,0,12.94-1.55c6.77-1.33,7.25-2.18,4.92-8.65-.56-1.44-1.15-1.77-2.63-1.29-9.13,2.88-18.37,2.84-27.64,1-3.4-.67-4.85.11-5,3.51a20,20,0,0,1-.45,2.07c-.7,2.4.3,3.4,2.7,3.73A107,107,0,0,0,96.44,85.23Zm3,16.93c3-.22,6-.33,8.91-.66,6-.67,7.06-2,7.06-8.1,0-1.59-.26-2.14-2-1.59a46.13,46.13,0,0,1-9.79,2A85.93,85.93,0,0,1,81.88,93c-1-.15-2.44-1.14-3,.59-.85,2.48,1.59,6.51,4.21,7A69.77,69.77,0,0,0,99.44,102.16Zm57-57.77c-.89.11-3-.18-3.29.44-.66,1.41,1.07,2.37,1.92,3.44a47.54,47.54,0,0,0,9.61,9c7.88,5.66,10,5.32,16.6-1.81,1.63-1.81,1.26-2.51-.48-3.73A46.79,46.79,0,0,0,156.47,44.39ZM36.16,47.05A44.15,44.15,0,0,0,19,51.75c-2.85,1.44-7.32,2.77-7.39,5.5-.08,2.92,4.21,4.7,7,6.62,1.25.92,2.51,1.63,4.25.66A52.22,52.22,0,0,0,39.89,48.94c1.22-1.7.48-2-1.18-1.89ZM152.55,79c3.74-.48,7.43-1,9.65-4.51,2-3.17.63-6-3-6.43a31,31,0,0,1-10.76-3.69c-5.95-3.22-11.9-6.51-17.93-9.72-.55-.3-1.11-1-1.92-.41A16.68,16.68,0,0,0,130,55.37c7.35,5.51,13.79,11.83,17.37,20.51C148.45,78.54,150.08,79.21,152.55,79ZM42.11,81.43c3.44,0,4-.12,4.58-2,3.11-9,9.06-15.9,16.16-21.92.44-.41,1.59-.74,1-1.41s-1.29.3-1.85.63C56.6,60,51.17,63.28,45.77,66.53A34.14,34.14,0,0,1,35.5,70.67c-1.37.33-3.33-.48-3.81,1.81s-.15,4.55,1.85,6.17C36.23,80.83,39.41,81.24,42.11,81.43ZM31.65,68.08a7.94,7.94,0,0,0,7.62-3.62A59.79,59.79,0,0,1,50.13,53.19c1.85-1.48,3.62-3,5.36-4.48-2.44-1-5.06-.7-7.58-1.18s-4.06.45-5.47,2.63A54.18,54.18,0,0,1,29.73,63.57c-1.37,1-4.4,2.26-3.88,3.11C26.88,68.45,29.58,68.05,31.65,68.08ZM146.71,45.17c-2.47.4-4.36.62-6.24,1-.85.19-2.22-.44-2.44.74-.15.85,1.07,1.07,1.77,1.55a56.8,56.8,0,0,1,14.45,12.79c3.37,4.47,7.47,4.47,12.13,3.44.74-.19,1.92,0,2.14-1s-1-1.18-1.63-1.59a54.58,54.58,0,0,1-16.22-14.93C149.37,45.57,148.19,44.58,146.71,45.17ZM170,35.45c-2.66.07-3.92,3.43-6.58,4.65-.55.22-1.59.56-1.29,1.37s1.18.59,1.88.7a50.26,50.26,0,0,1,17.08,6.25c1.26.74,2.4,2.73,3.84,1.77s1.93-3.21,2-5.17c.11-2.85-1.52-4.66-3.85-6C179.31,36.92,175,36.26,170,35.45ZM66.1,45.76c2.4-.15,4.8-.26,7.17-.48.55,0,1.59-.37,1.59-.56,0-.88-1-.92-1.55-1.11a88.32,88.32,0,0,0-15.45-3,243.31,243.31,0,0,0-26.43-2.47c-.74,0-1.85-.45-2.14.59-.08.33.85,1,1.4,1.37,3.07,2,6.39,3.58,10,3.84C49.17,44.58,57.6,46.09,66.1,45.76Zm61.24-1.41c7.51-.11,14.94-1.7,22.4-2.4A27.92,27.92,0,0,0,162,37.52c.71-.45,1.82-1.26,1.71-1.59-.37-1.26-1.59-.6-2.41-.56a240.66,240.66,0,0,0-36.63,5.84c-2.14.48-4.43.85-6.24,2.4,2.14,1.37,4.51.56,6.8.78A13.61,13.61,0,0,0,127.34,44.35ZM6.55,49a8.38,8.38,0,0,0,1.3,4.07c.59,1.14,1.25,1.62,2.47.7A45.46,45.46,0,0,1,30.06,45c.52-.07,1.26-.11,1.07-1-.07-.45-8-5.25-8.65-5.14-4.36.78-8.68,1.66-12.53,4C7.92,44.13,6.33,45.91,6.55,49Zm71.93,4.88c0-1.59-1.33-2.26-3-1.29C66,58,57.67,64.61,52.24,74.29c-.93,1.67-3.07,4.1-1.74,5.21,1.07.93,3.37-1.51,4.84-2.88,7.4-7.1,14.31-14.71,22.29-21.25C78,55,78.63,54.67,78.48,53.89ZM97.07,68.08a47.39,47.39,0,0,0,11.65-1.33c.85-.18,3,.15,2-1.92-.71-1.52-.12-4.44-2.89-4.1a104.52,104.52,0,0,1-21.73.4c-3.07-.25-2.63,3-3.18,4.73s1.59,1.37,2.44,1.48A46.51,46.51,0,0,0,97.07,68.08ZM115.89,50.6c-.78-.15-1.11.11-1.3.59a1.77,1.77,0,0,0,.63,2.22c2.29,1.92,4.62,3.81,6.88,5.76,6.35,5.59,12.27,11.68,19.33,16.49.81.59,2,1.81,2.73,1.18.89-.77-.33-1.92-.81-2.73-6.14-10.8-15.71-17.74-26.58-23.07A5.67,5.67,0,0,0,115.89,50.6ZM95.48,31.38c-4.14.3-8.28,1.37-10.86,5.62-.26.44-.78,1.07-.15,1.51.22.19.85,0,1.26-.18A32,32,0,0,1,106.42,38a5.37,5.37,0,0,0,1.7.15,6.86,6.86,0,0,0-.59-1.59C104.54,32.6,100.51,31.31,95.48,31.38Zm2,85.09a15.54,15.54,0,0,0,11-5.07c.48-.52,1.18-1.4,1-1.62-.55-.89-1.48-.26-2.18-.15a48.76,48.76,0,0,1-19.88.48,5.31,5.31,0,0,0-1.67.11,4.72,4.72,0,0,0,.82,1.48C89.72,114.54,93.23,116.47,97.52,116.47Zm30.31-69.23c-.74,0-1.45,0-2.15.07a3.43,3.43,0,0,0-1.18.44c.33.3.55.74,1,.93,7.8,4.21,15.56,8.39,23.4,12.53.4.18,1.18.44,1.29.29.48-.7-.3-.92-.63-1.29a54.37,54.37,0,0,0-11.94-9.68C134.48,48.79,131.52,46.83,127.83,47.24ZM69.09,49.16c0-.81-.63-.63-1-.67-2.59,0-5.18,0-7.65,1.22a55.09,55.09,0,0,0-15,11.94c-.4.48-1.4,1-.74,1.63s1.3-.22,1.82-.59c7.13-4.22,14.3-8.5,21.47-12.76A5.74,5.74,0,0,0,69.09,49.16Z"/></svg>